<?xml version="1.0" ?>
<svg  enable-background="new 0 0 64 64" height="64px" version="1.1" viewBox="0 0 64 64" width="64px" xmlns="http://www.w3.org/2000/svg" xml:space="preserve"><g id="Layer_1"><g><circle cx="32" cy="32" fill="#C75C5C" r="32"/></g><g opacity="0.2"><path d="M48,52c0,1.105-0.895,2-2,2H18c-1.105,0-2-0.895-2-2l0,0c0-1.105,0.895-2,2-2h28    C47.105,50,48,50.895,48,52L48,52z" fill="#231F20"/></g><g><path d="M36,45c0,1.657-1.343,3-3,3h-2c-1.657,0-3-1.343-3-3V35c0-1.657,1.343-3,3-3h2c1.657,0,3,1.343,3,3V45z" fill="#E0995E"/></g><g opacity="0.2"><g><path d="M41,34c-1.104,0-2-0.896-2-2s0.896-2,2-2c3.178,0,7-5.49,7-8.939C48,18.349,48,18,44,18H20     c-4,0-4,0.349-4,3.061C16,24.51,19.822,30,23,30c1.104,0,2,0.896,2,2s-0.896,2-2,2c-5.562,0-11-7.409-11-12.939     C12,14.54,15.784,14,20,14h24c4.216,0,8,0.54,8,7.061C52,26.591,46.562,34,41,34z" fill="#231F20"/></g></g><g><path d="M41,32c-1.104,0-2-0.896-2-2s0.896-2,2-2c3.178,0,7-5.49,7-8.938C48,16.349,48,16,44,16H20    c-4,0-4,0.349-4,3.062C16,22.51,19.822,28,23,28c1.104,0,2,0.896,2,2s-0.896,2-2,2c-5.562,0-11-7.408-11-12.938    C12,12.54,15.784,12,20,12h24c4.216,0,8,0.54,8,7.062C52,24.592,46.562,32,41,32z" fill="#E0995E"/></g><g><path d="M18.043,12C18.653,31.911,26.431,36,32,36s13.347-4.089,13.957-24H18.043z" fill="#F5CF87"/></g><g><path d="M43.705,50.254C42.508,46.676,37.727,44,32,44s-10.508,2.676-11.705,6.254H43.705z" fill="#F5CF87"/></g><g><path d="M48,50c0,1.105-0.895,2-2,2H18c-1.105,0-2-0.895-2-2l0,0c0-1.105,0.895-2,2-2h28    C47.105,48,48,48.895,48,50L48,50z" fill="#4F5D73"/></g><g opacity="0.2"><path d="M38,42c0,1.105-0.895,2-2,2h-8c-1.105,0-2-0.895-2-2l0,0c0-1.105,0.895-2,2-2h8C37.105,40,38,40.895,38,42    L38,42z" fill="#231F20"/></g><g><path d="M38,40c0,1.105-0.895,2-2,2h-8c-1.105,0-2-0.895-2-2l0,0c0-1.105,0.895-2,2-2h8C37.105,38,38,38.895,38,40    L38,40z" fill="#F5CF87"/></g><g opacity="0.2"><path d="M48,16c0,1.105-0.895,2-2,2H18c-1.105,0-2-0.895-2-2l0,0c0-1.105,0.895-2,2-2h28    C47.105,14,48,14.895,48,16L48,16z" fill="#231F20"/></g><g><path d="M48,14c0,1.105-0.895,2-2,2H18c-1.105,0-2-0.895-2-2l0,0c0-1.105,0.895-2,2-2h28    C47.105,12,48,12.895,48,14L48,14z" fill="#F5CF87"/></g></g><g id="Layer_2"/></svg>