<?xml version="1.0" ?><!DOCTYPE svg  PUBLIC '-//W3C//DTD SVG 1.1//EN'
    'http://www.w3.org/Graphics/SVG/1.1/DTD/svg11.dtd'>
<svg style="enable-background:new 0 0 500 500;" version="1.1" viewBox="0 0 500 500" xml:space="preserve" xmlns="http://www.w3.org/2000/svg" ><g id="add-buy-plus-shopping-cart"><g><polygon points="500,250 473.216,279.409 491.536,314.718 458.049,336.172 466.532,375.03 428.619,387.055     426.778,426.778 387.044,428.619 375.02,466.543 336.161,458.049 314.707,491.547 279.409,473.226 250,500 220.581,473.226     185.282,491.547 163.818,458.049 124.959,466.543 112.945,428.619 73.222,426.778 71.371,387.044 33.458,375.021 41.941,336.172     8.453,314.718 26.774,279.409 0,250 26.774,220.591 8.453,185.282 41.941,163.829 33.458,124.97 71.371,112.956 73.222,73.222     112.956,71.381 124.97,33.468 163.829,41.952 185.282,8.463 220.581,26.784 250,0 279.409,26.784 314.718,8.463 336.172,41.962     375.03,33.468 387.044,71.381 426.778,73.232 428.619,112.966 466.532,124.98 458.049,163.839 491.536,185.282 473.216,220.591       " style="fill:#27AE60;"/><g id="_x31_9"><g><path d="M341.074,158.666c-16.82,0-30.736,12.268-33.371,28.351c-0.295,1.796-0.488,3.632-0.488,5.514      c0,3.744,0.631,7.334,1.755,10.702c3.291,9.862,10.986,17.69,20.763,21.169c3.55,1.267,7.359,1.994,11.342,1.994      c1.603,0,3.169-0.152,4.715-0.366c16.46-2.304,29.135-16.418,29.135-33.498C374.924,173.818,359.771,158.666,341.074,158.666z" style="fill:#FC6E51;"/><path d="M357.981,197.901h-3.107h-8.393v11.525c0,2.971-2.432,5.381-5.407,5.381      c-2.965,0-5.381-2.411-5.381-5.381v-5.086v-1.109v-5.33h-11.505c-2.985,0-5.392-2.406-5.392-5.371      c0-2.98,2.406-5.386,5.392-5.386h11.505v-0.127v-11.393c0-2.98,2.416-5.381,5.381-5.381c2.976,0,5.407,2.401,5.407,5.381v11.393      v0.127h11.5c0.122,0,0.224,0.061,0.341,0.066c2.787,0.193,5.04,2.462,5.04,5.32      C363.362,195.496,360.932,197.901,357.981,197.901z" style="fill:#F4F8F8;"/></g><path d="M299.963,324.005c0,9.572,7.761,17.329,17.334,17.329c9.572,0,17.328-7.757,17.328-17.329     c0-9.577-7.756-17.339-17.328-17.339C307.724,306.666,299.963,314.428,299.963,324.005z" style="fill:#484B4D;"/><path d="M181.986,324.005c0,9.572,7.757,17.329,17.334,17.329c9.572,0,17.329-7.757,17.329-17.329     c0-9.577-7.757-17.339-17.329-17.339C189.743,306.666,181.986,314.428,181.986,324.005z" style="fill:#484B4D;"/><path d="M172.948,218.064l25.248,85.81h122.452l22.532-69.779c-0.702,0.041-1.394,0.112-2.107,0.112     c-9.089,0-17.481-2.96-24.332-7.914h-23.016l1.978-23.061h5.143c-0.911-3.423-1.445-6.998-1.445-10.702     c0-1.877,0.168-3.708,0.407-5.514H182.078l-8.27-27.974h-0.127h-18.184h-30.426v14.76h34.79L172.948,218.064z M278.951,290.736     h-34.16l-1.953-22.787h38.061L278.951,290.736z M281.692,258.723H242.05l-1.984-23.203h43.609L281.692,258.723z M292.939,235.52     h33.493l-6.897,23.203h-28.585L292.939,235.52z M290.161,267.949h26.632l-6.76,22.787h-21.825L290.161,267.949z M286.438,203.232     l-1.973,23.061h-45.186l-1.974-23.061H286.438z M235.535,290.736h-24.76l-6.328-22.787h29.14L235.535,290.736z M232.793,258.723     h-30.909l-6.454-23.203h35.375L232.793,258.723z M228.042,203.232l1.974,23.061H193.69l-6.815-23.061H228.042z" style="fill:#F4F8F8;"/></g></g></g><g id="Layer_1"/></svg>