<?xml version="1.0" ?>
<svg  style="enable-background:new 0 0 48 48.00004;" version="1.1" viewBox="0 0 48 48.00004" xmlns="http://www.w3.org/2000/svg" xml:space="preserve">
<g class="st0" id="Padding__x26__Artboard"/><g id="Icons"><g><g>
    <path  class="st2" d="M19.55206,38.15731c0-0.01609-0.00604-0.03218-0.01005-0.05228     c-0.14478,0.02413-0.28152,0.04826-0.42027,0.06836c-0.27146,0.04022-0.54494,0.06032-0.81841,0.02211     c-0.20108-0.02814-0.32776-0.13873-0.33782-0.33982c-0.01609-0.35189-0.02212-0.7058-0.00804-1.05769     c0.01005-0.24934,0.12668-0.35189,0.372-0.38609c0.23526-0.03418,0.46852-0.0201,0.70177,0.01006     c0.16891,0.02212,0.3358,0.05027,0.50673,0.07641c0.00603-0.01408,0.01005-0.0181,0.01005-0.02414     c0.00201-0.24934,0.00402-0.50069,0-0.75204c0-0.0201-0.03619-0.05429-0.06032-0.06033     c-0.10255-0.02614-0.20511-0.04423-0.30766-0.06032c-0.40015-0.06435-0.8003-0.0925-1.20045-0.01005     c-0.34587,0.07239-0.63543,0.23325-0.8345,0.53487c-0.15282,0.23125-0.21113,0.49064-0.21917,0.76411     c-0.00604,0.25538-0.00604,0.51277,0,0.76814c0.00401,0.13673,0.01809,0.27749,0.04826,0.41021     c0.08244,0.36999,0.28553,0.64949,0.62737,0.82242c0.2232,0.11462,0.4645,0.15885,0.70981,0.17494     c0.40016,0.02816,0.79226-0.03016,1.18236-0.11261c0.04827-0.01005,0.06034-0.03619,0.06034-0.08244     C19.55206,38.63387,19.55206,38.39658,19.55206,38.15731z M13.15363,34.76705c0.15282-0.00804,0.30765-0.01005,0.46047-0.01206     c0.05027,0,0.07039-0.01809,0.07039-0.06836c-0.00201-0.24331-0.00201-0.48663,0-0.72993     c0-0.04022-0.01206-0.06435-0.05832-0.06234c-0.32776,0.01207-0.65753,0.00804-0.98529,0.0382     c-0.23125,0.0201-0.43233,0.12868-0.57912,0.32173c-0.15081,0.19506-0.19506,0.42428-0.20511,0.66156     c-0.00804,0.18702-0.00201,0.37603-0.00201,0.56504c0,0.10054-0.00804,0.10658-0.10657,0.10658h-0.35391     c-0.05027-0.00201-0.07641,0.01207-0.07641,0.06837c0.00201,0.24129,0.00201,0.48259,0,0.72188     c0,0.05027,0.0201,0.07038,0.07037,0.07038c0.11261-0.00201,0.22521-0.00201,0.33782,0c0.1287,0,0.1287,0,0.1287,0.12868     c0,0.78422,0,1.56844-0.00201,2.35266c0,0.07641,0.02213,0.09853,0.09653,0.09853     c0.27347-0.00401,0.54492-0.00201,0.81639-0.00201c0.12064,0,0.12064,0,0.12064-0.11863     c-0.00201-0.7802-0.00201-1.56241-0.00403-2.34463c0-0.11863,0.00201-0.11863,0.11663-0.11863     c0.16891,0,0.33983-0.00201,0.50874,0.00201c0.07239,0.00201,0.09652-0.02614,0.10054-0.09451     c0.00201-0.08043,0.01608-0.16086,0.02413-0.2413c0.01609-0.1689,0.03418-0.3358,0.05228-0.51276     c-0.02614-0.00401-0.04223-0.00603-0.05631-0.00603c-0.21717,0-0.43433-0.00402-0.6515,0     c-0.07239,0.00201-0.09651-0.02614-0.09451-0.09653c0.00403-0.15081,0-0.30362,0.00403-0.45443     C12.89222,34.8676,12.9807,34.7751,13.15363,34.76705z M16.53583,37.06342c-0.00201-0.22321-0.01408-0.44842-0.04626-0.66759     c-0.04625-0.30967-0.20308-0.54896-0.50471-0.67363c-0.21115-0.08848-0.43636-0.12266-0.66358-0.12868     c-0.38004-0.00805-0.7621-0.00201-1.14416-0.00402h-0.10254c-0.03017,0.28956-0.05832,0.56907-0.08648,0.86062h0.10054     c0.3157,0,0.6314-0.00401,0.94911,0.00201c0.08646,0.00201,0.17494,0.02011,0.25939,0.04424     c0.10658,0.03016,0.17093,0.10657,0.18098,0.22119c0.00804,0.09853,0.01005,0.19706,0.01609,0.2956     c0.00401,0.05227-0.01609,0.07239-0.07039,0.07239c-0.27951,0.00201-0.559,0.00602-0.83851,0.01609     c-0.09452,0.002-0.19103,0.01206-0.28553,0.03217c-0.32575,0.07037-0.557,0.25135-0.63744,0.58716     c-0.04021,0.17494-0.05027,0.34988-0.0201,0.52885c0.04624,0.28152,0.16086,0.52081,0.41222,0.67765     c0.28755,0.17896,0.60123,0.15886,0.91492,0.1126c0.20511-0.03016,0.39815-0.10054,0.58113-0.19504     c0.06636-0.03418,0.08646-0.02212,0.09853,0.05228c0.00805,0.04423,0.01609,0.09048,0.02413,0.13472h0.86466v-0.10255     C16.53784,38.30812,16.54186,37.68677,16.53583,37.06342z M15.49222,38.12915c-0.00201,0.02614-0.02012,0.06435-0.04223,0.0744     c-0.15081,0.07641-0.30765,0.13875-0.48259,0.13472c-0.21919-0.00602-0.34587-0.17695-0.29157-0.3901     c0.02413-0.09049,0.08445-0.13875,0.17091-0.1488c0.11059-0.01408,0.2232-0.01609,0.3338-0.02413v0.00804     c0.07841,0,0.15684,0,0.23526-0.00201c0.05228,0,0.07842,0.0181,0.07641,0.07441     C15.49222,37.94616,15.49623,38.03866,15.49222,38.12915z M33.18744,36.94477c-0.00201-0.14277-0.01207-0.28754-0.04022-0.42629     c-0.08044-0.39211-0.2976-0.6857-0.67362-0.83248c-0.49265-0.19103-0.99737-0.19303-1.50008-0.04625     c-0.45445,0.1307-0.73194,0.44438-0.81037,0.9109c-0.04021,0.24533-0.03821,0.49869-0.05227,0.70781     c0.01407,0.27347,0.00804,0.50673,0.04021,0.73595c0.07039,0.48059,0.3338,0.81238,0.80433,0.9652     c0.39614,0.12868,0.80233,0.1307,1.21052,0.05428c0.24533-0.04624,0.46852-0.14477,0.65351-0.3177     c0.23326-0.2212,0.33983-0.50472,0.35793-0.81841C33.19548,37.56813,33.19146,37.25645,33.18744,36.94477z M32.16191,37.29667     h-0.00602c0,0.17091,0.01005,0.33983-0.00201,0.50874c-0.01408,0.21917-0.13071,0.34586-0.34385,0.38809     c-0.1307,0.02413-0.26342,0.02212-0.3921-0.02614c-0.13675-0.05027-0.2413-0.14479-0.24734-0.28754     c-0.01608-0.36597-0.02212-0.73597-0.00603-1.10194c0.01005-0.22118,0.16086-0.34787,0.38005-0.372     c0.13271-0.01408,0.26743-0.01206,0.39009,0.05228c0.16489,0.08244,0.22321,0.22722,0.22722,0.40015     C32.16594,37.0051,32.16191,37.14988,32.16191,37.29667z M29.74693,36.59691c-0.07039-0.4645-0.32375-0.79629-0.78221-0.9471     c-0.42831-0.14076-0.86465-0.14277-1.299-0.04223c-0.53487,0.12467-0.85661,0.4625-0.93101,1.00944     c-0.03015,0.22521-0.008,0.45244-0.02206,0.69173c0.01406,0.22521-0.00809,0.46651,0.02609,0.69976     c0.06032,0.41423,0.27548,0.72792,0.66558,0.90287c0.26342,0.11662,0.54292,0.1488,0.82443,0.15281     c0.23728,0.00402,0.47456-0.02212,0.70179-0.09652c0.25537-0.08244,0.47656-0.21918,0.62737-0.45445     c0.13673-0.21516,0.20108-0.45042,0.20912-0.70379C29.78111,37.40525,29.80725,36.99907,29.74693,36.59691z M28.73347,37.80541     c-0.00603,0.21114-0.13875,0.35993-0.34787,0.38809c-0.09853,0.01408-0.2031,0.01408-0.30162-0.00201     c-0.21315-0.03418-0.34184-0.18902-0.34587-0.41021c-0.00401-0.31971-0.00401-0.63743,0-0.95714     c0.00402-0.23729,0.16891-0.40216,0.41223-0.42027c0.12065-0.00804,0.24532-0.00804,0.35993,0.04826     c0.13875,0.06837,0.21113,0.18098,0.2232,0.33381c0.00201,0.01206,0.00201,0.02614,0.00201,0.0382v0.48661     C28.73548,37.47564,28.73951,37.64053,28.73347,37.80541z M22.87393,36.67131c-0.04021-0.5389-0.32575-0.91895-0.86666-1.05769     c-0.40015-0.10255-0.80232-0.09853-1.20247-0.00402c-0.51276,0.12066-0.85259,0.52081-0.88074,1.04563     c-0.01809,0.3157-0.01609,0.63342-0.01609,0.94912c0,0.12467,0.01006,0.25135,0.03017,0.37401     c0.06636,0.38406,0.24934,0.69574,0.59922,0.88878c0.21516,0.12065,0.45043,0.17494,0.69575,0.19103     c0.50472,0.0382,1.00139-0.00201,1.49605-0.10658c0.05228-0.01005,0.07239-0.03418,0.07037-0.08848     c-0.002-0.23124,0-0.46047,0-0.69172c0-0.0201-0.00401-0.04021-0.00603-0.0563c-0.2594,0.03016-0.51477,0.07037-0.77015,0.08244     c-0.25337,0.01408-0.50673,0.01006-0.75808-0.00804c-0.16288-0.01408-0.27748-0.11663-0.31168-0.28755     c-0.01206-0.05631-0.0201-0.11261-0.02212-0.17093c-0.00403-0.12667,0.00201-0.1307,0.13071-0.1307     c0.57912,0,1.16023-0.00201,1.73935,0c0.06435,0,0.08848-0.01609,0.08848-0.08245     C22.88198,37.23635,22.89405,36.95282,22.87393,36.67131z M21.85446,36.8563c-0.00201,0.02211-0.04223,0.05429-0.06636,0.05631     c-0.12869,0.00401-0.2594,0.002-0.3901,0.002c-0.13071,0-0.26141-0.002-0.3901,0c-0.04625,0-0.07239-0.0201-0.06837-0.06433     c0.00805-0.10054,0.00604-0.20511,0.03619-0.29962c0.0543-0.16689,0.19707-0.2232,0.35995-0.23929     c0.0543-0.00401,0.11059-0.00401,0.16489,0.00402C21.81424,36.35963,21.87657,36.59288,21.85446,36.8563z M36.48921,38.68816     c-0.26744-0.44439-0.53086-0.88677-0.8003-1.32915c-0.04223-0.07037-0.04626-0.12467,0.00201-0.19706     c0.29156-0.45445,0.58112-0.91292,0.86866-1.36937c0.04223-0.06435,0.08044-0.1287,0.12066-0.19707     c-0.02011-0.00602-0.02614-0.01206-0.03418-0.01206c-0.33179,0-0.66358,0.00201-0.99536,0     c-0.0543,0-0.08646,0.02011-0.11462,0.06435c-0.16489,0.26342-0.3338,0.52482-0.49868,0.78824     c-0.12267,0.19103-0.24331,0.38408-0.36597,0.5751c-0.02011,0.03016-0.05027,0.0563-0.0744,0.08445     c-0.01006-0.00403-0.02011-0.00804-0.03017-0.01207v-3.09063c-0.02816,0.00402-0.03821,0.00402-0.04826,0.00402     c-0.28754,0.05027-0.57509,0.09853-0.86465,0.14679c-0.11663,0.01809-0.11864,0.01609-0.11864,0.13472v3.99953     c0,0.20912,0,0.41825,0.00201,0.62738c0,0.11864,0,0.12064,0.11462,0.12064h0.80835c0.10858,0,0.10858,0,0.10858-0.10858     c0-0.4645-0.00201-0.93101-0.00201-1.39551c0-0.02614,0.00804-0.05228,0.01005-0.08044     c0.01005-0.002,0.0181-0.00402,0.02614-0.00804c0.03017,0.04223,0.06435,0.08245,0.09049,0.12668     c0.27951,0.46249,0.557,0.92497,0.8345,1.38947c0.03418,0.0543,0.07239,0.07843,0.13875,0.07843     c0.30162-0.00401,0.60525-0.00201,0.90888-0.00201c0.03017,0,0.05832-0.00603,0.10658-0.01005     C36.61187,38.89729,36.55154,38.79272,36.48921,38.68816z M26.35869,36.85831c-0.00402-0.20712-0.01809-0.41825-0.0543-0.62135     c-0.05027-0.29156-0.22118-0.50069-0.50471-0.59721c-0.44641-0.1488-0.89482-0.12266-1.34323-0.00805     c-0.13875,0.03621-0.14478,0.03621-0.14478-0.10254c0.00201-0.47858,0.00403-0.95715,0.00804-1.43573v-0.09452     c-0.02614-0.002-0.03418-0.00401-0.04021-0.00401c-0.30968,0.05228-0.61934,0.10455-0.927,0.15483     c-0.04826,0.00604-0.06836,0.02815-0.06635,0.07641c0.00401,0.0925,0.00401,0.18299,0.00401,0.27548v4.30317     c0,0.02413,0.00201,0.04625,0,0.07037c-0.00201,0.04424,0.01408,0.06435,0.06033,0.07038     c0.34787,0.03821,0.69171,0.0945,1.03959,0.11663c0.3901,0.02413,0.78221,0.01406,1.16225-0.10255     c0.20913-0.06435,0.39614-0.1669,0.54091-0.33983c0.187-0.22521,0.24533-0.49467,0.25538-0.77417     C26.3607,37.51786,26.36473,37.18809,26.35869,36.85831z M25.31709,37.76921c-0.01005,0.28354-0.16891,0.42027-0.46651,0.44238     c-0.14477,0.01005-0.29157,0-0.43836,0.00201c-0.06837,0.00201-0.09049-0.02614-0.09049-0.0925     c0.00201-0.24733,0-0.49466,0-0.744c0-0.24734,0.00201-0.49466,0-0.744c0-0.06435,0.02212-0.09653,0.08245-0.12266     c0.16288-0.06636,0.32776-0.11462,0.50672-0.10859c0.24935,0.00604,0.40418,0.1488,0.4082,0.39614     C25.32312,37.12173,25.32714,37.44748,25.31709,37.76921z" fill="#3b5998"/></g><path class="st1" d="M21.81042,29.52821l-0.10705-8.34961l-3.46441-0.01946l0.09731-4.03856h3.40602v-2.91944    c0-0.90318,0.17861-1.86032,0.55684-2.68276c0.31662-0.68848,0.80272-1.28603,1.43198-1.71152    c0.31629-0.21386,0.66142-0.38288,1.02021-0.51254c0.55624-0.20102,1.19795-0.34591,1.78981-0.35963    c0.30888-0.00716,0.61869,0.00536,0.92749,0.0146c0.15935,0.00477,2.29397,0.05988,2.29397,0.07464l-0.09888,3.6883    c0,0-0.47684-0.01946-2.15066,0c-1.64462,0.01946-1.66408,1.24563-1.66408,1.30402l-0.01946,3.10434l3.8342,0.06812    l-0.5547,3.97044h-3.26004l-0.08758,8.36907H21.81042z" fill="#3b5998"/></g></g></svg>