<?xml version="1.0" ?>
<svg  enable-background="new 0 0 75 75" height="75px" version="1.1" viewBox="0 0 75 75" width="75px" xmlns="http://www.w3.org/2000/svg" xml:space="preserve"><g id="Layer_1"><g><g><g><path d="M53.563,33.609c-0.28-0.865-1.029-1.496-1.932-1.629l-8.282-1.201l-3.704-7.506      c-0.808-1.633-3.483-1.633-4.291,0l-3.704,7.506l-8.283,1.201c-0.9,0.133-1.65,0.764-1.931,1.629      c-0.281,0.869-0.046,1.816,0.606,2.453l5.992,5.842l-1.414,8.248c-0.154,0.896,0.216,1.807,0.951,2.342      c0.74,0.535,1.714,0.607,2.52,0.182l7.408-3.895l7.408,3.895c0.352,0.184,0.732,0.273,1.113,0.273      c0.494,0,0.988-0.154,1.406-0.455c0.735-0.535,1.105-1.445,0.951-2.342l-1.414-8.248l5.992-5.842      C53.609,35.426,53.845,34.479,53.563,33.609z" fill="#F5CBA7"/></g><g><path d="M35.354,23.273l-3.704,7.506l-8.283,1.201c-0.9,0.133-1.65,0.764-1.931,1.629      c-0.281,0.869-0.046,1.816,0.606,2.453l5.992,5.842l-1.414,8.248c-0.154,0.896,0.216,1.807,0.951,2.342      c0.74,0.535,1.714,0.607,2.52,0.182l7.408-3.895V22.049C36.629,22.049,35.758,22.457,35.354,23.273z" fill="#F5CBA7"/></g><g><path d="M46.971,41.945l-0.006-0.041l5.992-5.842c0.652-0.637,0.888-1.584,0.606-2.453      c-0.28-0.865-1.029-1.496-1.932-1.629l-8.282-1.201l-3.704-7.506c-0.808-1.633-3.483-1.633-4.291,0l-3.704,7.506l-0.054,0.008      L46.971,41.945z" fill="#F5CBA7"/></g><g><path d="M37.5,35.072V22.049c-0.871,0-1.742,0.408-2.146,1.225l-3.704,7.506l-0.054,0.008L37.5,35.072z" fill="#F5CBA7"/></g><g><path d="M28.98,53.702c-0.666,0-1.305-0.208-1.848-0.6c-0.962-0.7-1.452-1.907-1.251-3.077l1.348-7.859      L21.52,36.6c-0.862-0.841-1.167-2.076-0.797-3.221c0.365-1.127,1.36-1.967,2.535-2.14l7.895-1.145l3.529-7.152      c0.502-1.013,1.581-1.643,2.818-1.643s2.316,0.629,2.817,1.642l3.53,7.153l7.892,1.145c1.195,0.176,2.167,0.996,2.538,2.14      c0.37,1.146,0.065,2.38-0.797,3.221l-5.71,5.567l1.348,7.859c0.201,1.169-0.289,2.376-1.249,3.075      c-0.962,0.692-2.267,0.782-3.309,0.24L37.5,49.628l-7.06,3.711C29.993,53.576,29.487,53.702,28.98,53.702z M37.5,22.799      c-0.52,0-1.179,0.212-1.474,0.807l-3.703,7.505c-0.109,0.221-0.321,0.375-0.565,0.41l-8.283,1.201      c-0.613,0.09-1.134,0.529-1.324,1.118c-0.194,0.6-0.034,1.245,0.416,1.686l5.992,5.841c0.177,0.172,0.258,0.42,0.216,0.664      l-1.414,8.248c-0.105,0.612,0.151,1.243,0.653,1.608c0.497,0.36,1.186,0.412,1.728,0.125l7.41-3.896      c0.217-0.114,0.48-0.114,0.697,0l7.408,3.895c0.544,0.284,1.227,0.239,1.732-0.126c0.499-0.363,0.756-0.994,0.65-1.605      l-1.414-8.249c-0.042-0.244,0.039-0.492,0.216-0.664l5.992-5.842c0.45-0.44,0.61-1.085,0.416-1.685      c-0.193-0.598-0.702-1.026-1.327-1.118l-8.28-1.201c-0.244-0.036-0.456-0.189-0.565-0.41l-3.704-7.506      C38.679,23.011,38.02,22.799,37.5,22.799z" fill="#093260"/></g></g><g><g><g><g><path d="M37.5,13.197c-1.178,0-2.131-0.953-2.131-2.129V8.404c0-1.176,0.953-2.129,2.131-2.129        c1.177,0,2.13,0.953,2.13,2.129v2.664C39.63,12.244,38.677,13.197,37.5,13.197z" fill="#D98880"/></g></g><g><g><path d="M37.5,68.725c-1.178,0-2.131-0.955-2.131-2.131V63.93c0-1.176,0.953-2.129,2.131-2.129        c1.177,0,2.13,0.953,2.13,2.129v2.664C39.63,67.77,38.677,68.725,37.5,68.725z" fill="#D98880"/></g></g></g><g><g><g><path d="M37.5,13.947c-1.589,0-2.881-1.292-2.881-2.879V8.404c0-1.587,1.292-2.879,2.881-2.879        c1.588,0,2.88,1.292,2.88,2.879v2.664C40.38,12.656,39.088,13.947,37.5,13.947z M37.5,7.025c-0.762,0-1.381,0.619-1.381,1.379        v2.664c0,0.76,0.619,1.379,1.381,1.379c0.761,0,1.38-0.619,1.38-1.379V8.404C38.88,7.644,38.261,7.025,37.5,7.025z" fill="#093260"/></g></g><g><g><path d="M37.5,69.475c-1.589,0-2.881-1.292-2.881-2.881V63.93c0-1.587,1.292-2.879,2.881-2.879        c1.588,0,2.88,1.292,2.88,2.879v2.664C40.38,68.182,39.088,69.475,37.5,69.475z M37.5,62.551        c-0.762,0-1.381,0.619-1.381,1.379v2.664c0,0.761,0.619,1.381,1.381,1.381c0.761,0,1.38-0.62,1.38-1.381V63.93        C38.88,63.169,38.261,62.551,37.5,62.551z" fill="#093260"/></g></g></g></g><g><g><g><g><path d="M54.684,20.316c-0.832-0.832-0.832-2.182,0-3.014l1.883-1.883c0.832-0.832,2.182-0.832,3.012,0        c0.834,0.832,0.834,2.182,0,3.014l-1.882,1.883C56.863,21.148,55.515,21.148,54.684,20.316z" fill="#D98880"/></g></g><g><g><path d="M15.421,59.578c-0.833-0.83-0.833-2.182,0-3.014l1.882-1.881c0.833-0.832,2.182-0.832,3.014,0        c0.832,0.83,0.832,2.18,0,3.012l-1.883,1.883C17.602,60.41,16.252,60.41,15.421,59.578z" fill="#D98880"/></g></g></g><g><g><g><path d="M56.189,21.69c-0.77,0-1.493-0.3-2.036-0.844c-1.123-1.123-1.123-2.951,0-4.074l1.883-1.883        c1.088-1.088,2.985-1.088,4.073,0c0.544,0.543,0.845,1.267,0.845,2.037c-0.001,0.77-0.301,1.494-0.847,2.038l-1.881,1.882        C57.682,21.391,56.958,21.69,56.189,21.69z M58.073,15.546c-0.369,0-0.716,0.144-0.977,0.404l-1.883,1.883        c-0.538,0.539-0.538,1.415,0,1.953c0.521,0.521,1.43,0.522,1.952,0l1.882-1.882c0.262-0.261,0.406-0.608,0.406-0.977        s-0.145-0.715-0.405-0.976C58.787,15.689,58.441,15.546,58.073,15.546z" fill="#093260"/></g></g><g><g><path d="M16.927,60.952c-0.77,0-1.493-0.3-2.036-0.844c-0.544-0.542-0.844-1.264-0.845-2.034        c0-0.771,0.3-1.495,0.845-2.04l1.882-1.88c1.09-1.089,2.986-1.087,4.074,0c0.543,0.542,0.844,1.265,0.844,2.034        c0,0.77-0.299,1.494-0.844,2.039l-1.883,1.883C18.42,60.652,17.696,60.952,16.927,60.952z M18.81,54.81        c-0.368,0-0.716,0.144-0.977,0.405l-1.882,1.88c-0.262,0.261-0.405,0.608-0.405,0.978c0,0.369,0.144,0.715,0.404,0.974        c0.524,0.524,1.433,0.521,1.953,0.001l1.883-1.883c0.261-0.261,0.404-0.608,0.404-0.977c0-0.368-0.144-0.714-0.403-0.974        C19.525,54.953,19.179,54.81,18.81,54.81z" fill="#093260"/></g></g></g></g><g><g><g><g><path d="M61.801,37.5c0-1.178,0.953-2.131,2.131-2.131h2.662c1.177,0,2.131,0.953,2.131,2.131        c0,1.176-0.954,2.129-2.131,2.129h-2.662C62.754,39.629,61.801,38.676,61.801,37.5z" fill="#D98880"/></g></g><g><g><path d="M6.275,37.5c-0.001-1.178,0.953-2.131,2.131-2.131h2.662c1.177,0,2.131,0.953,2.131,2.131        c-0.001,1.176-0.954,2.129-2.131,2.129H8.406C7.229,39.629,6.275,38.676,6.275,37.5z" fill="#D98880"/></g></g></g><g><g><g><path d="M66.594,40.379h-2.662c-1.589,0-2.881-1.292-2.881-2.879c0-1.588,1.292-2.881,2.881-2.881h2.662        c1.589,0,2.881,1.292,2.881,2.881C69.475,39.087,68.183,40.379,66.594,40.379z M63.932,36.119        c-0.762,0-1.381,0.62-1.381,1.381c0,0.76,0.619,1.379,1.381,1.379h2.662c0.762,0,1.381-0.619,1.381-1.379        c0-0.761-0.619-1.381-1.381-1.381H63.932z" fill="#093260"/></g></g><g><g><path d="M11.068,40.379H8.406c-1.589,0-2.881-1.292-2.881-2.879c-0.001-0.77,0.299-1.493,0.843-2.038        c0.544-0.544,1.269-0.843,2.038-0.843h2.662c1.589,0,2.881,1.292,2.881,2.881C13.948,39.088,12.655,40.379,11.068,40.379z         M8.406,36.119c-0.369,0-0.717,0.144-0.978,0.404c-0.261,0.26-0.403,0.607-0.403,0.976c0,0.761,0.619,1.379,1.381,1.379h2.662        c0.761,0,1.38-0.619,1.381-1.379c0-0.761-0.619-1.38-1.381-1.38H8.406z" fill="#093260"/></g></g></g></g><g><g><g><g><path d="M54.684,54.684c0.832-0.832,2.18-0.832,3.013,0l1.882,1.881c0.834,0.832,0.833,2.184,0,3.014        c-0.83,0.834-2.18,0.834-3.012,0l-1.883-1.883C53.852,56.863,53.852,55.514,54.684,54.684z" fill="#D98880"/></g></g><g><g><path d="M15.421,15.42c0.831-0.832,2.181-0.832,3.013,0l1.883,1.883c0.832,0.832,0.832,2.182,0,3.014        s-2.181,0.832-3.014,0l-1.882-1.883C14.588,17.602,14.589,16.252,15.421,15.42z" fill="#D98880"/></g></g></g><g><g><g><path d="M58.073,60.954c-0.771,0-1.494-0.3-2.038-0.846l-1.882-1.882c-0.545-0.544-0.844-1.269-0.844-2.039        c0-0.769,0.301-1.492,0.845-2.034c1.086-1.087,2.982-1.088,4.072,0l1.882,1.881c0.545,0.543,0.845,1.268,0.845,2.038        s-0.301,1.494-0.846,2.037C59.566,60.653,58.843,60.954,58.073,60.954z M56.189,54.81c-0.368,0-0.715,0.144-0.976,0.404        c-0.261,0.26-0.404,0.606-0.404,0.974c0,0.369,0.144,0.716,0.404,0.977l1.883,1.883c0.522,0.522,1.43,0.524,1.95,0.001        c0.263-0.262,0.406-0.608,0.406-0.977s-0.144-0.716-0.404-0.977l-1.883-1.881C56.905,54.953,56.559,54.81,56.189,54.81z" fill="#093260"/></g></g><g><g><path d="M18.81,21.69c-0.769,0-1.492-0.299-2.037-0.843l-1.882-1.883c-0.544-0.543-0.845-1.267-0.844-2.037        c0-0.77,0.3-1.493,0.844-2.037c1.086-1.088,2.985-1.088,4.073,0l1.883,1.883c1.123,1.123,1.123,2.951,0,4.074        C20.303,21.391,19.579,21.69,18.81,21.69z M16.927,15.546c-0.368,0-0.715,0.144-0.976,0.404        c-0.261,0.261-0.404,0.608-0.404,0.977c0,0.369,0.144,0.716,0.404,0.976l1.882,1.883c0.521,0.522,1.433,0.521,1.953,0        c0.538-0.539,0.538-1.415,0-1.953l-1.883-1.883C17.643,15.689,17.296,15.546,16.927,15.546z" fill="#093260"/></g></g></g></g></g></g></svg>