<?xml version="1.0" ?>
<svg  enable-background="new 0 0 800 800" version="1.1" viewBox="0 0 800 800" xmlns="http://www.w3.org/2000/svg" xml:space="preserve"><g id="Layer_1"><path d="M771.9,400c0,205.3-166.6,371.9-371.9,371.9S28.1,605.3,28.1,400S194.7,28.1,400,28.1   S771.9,194.7,771.9,400z" fill="#F06292"/></g><g id="Layer_2"><path d="M415.2,192.1l38.4,118.1   c2.1,6.6,8.3,11.1,15.2,11.1H593c15.5,0,21.9,19.8,9.4,28.9l-100.5,73c-5.6,4.1-8,11.3-5.8,17.9l38.4,118.1   c4.8,14.7-12.1,27-24.6,17.9l-100.5-73c-5.6-4.1-13.2-4.1-18.8,0l-100.5,73c-12.5,9.1-29.4-3.1-24.6-17.9l38.4-118.1   c2.1-6.6-0.2-13.8-5.8-17.9l-100.5-73c-12.5-9.1-6.1-28.9,9.4-28.9h124.2c6.9,0,13.1-4.5,15.2-11.1l38.4-118.1   C389.6,177.3,410.4,177.3,415.2,192.1z" fill="none" stroke="#FFFFFF" stroke-linecap="round" stroke-miterlimit="10" stroke-width="16"/></g></svg>